<svg width="21" height="20" viewBox="0 0 21 20" fill="none" xmlns="http://www.w3.org/2000/svg">
<path fill-rule="evenodd" clip-rule="evenodd" d="M0 10C0 15.5 4.50375 20 10.0083 20C15.5129 20 20.0167 15.5 20.0167 10C20.0167 4.5 15.5129 0 10.0083 0C4.50375 0 0 4.5 0 10ZM1.66806 10C1.66806 5.41667 5.42118 1.66667 10.0083 1.66667C14.5955 1.66667 18.3486 5.41667 18.3486 10C18.3486 14.5833 14.5955 18.3333 10.0083 18.3333C5.42118 18.3333 1.66806 14.5833 1.66806 10Z" fill="white"/>
<path d="M10.0083 10.8333C9.50793 10.8333 9.17432 10.5 9.17432 10V4.16667C9.17432 3.66667 9.50793 3.33334 10.0083 3.33334C10.5088 3.33334 10.8424 3.66667 10.8424 4.16667V10C10.8424 10.5 10.5088 10.8333 10.0083 10.8333Z" fill="white"/>
<path d="M13.3445 14.1667C13.0942 14.1667 12.9274 14.0833 12.7606 13.9167L9.42452 10.5833C9.09091 10.25 9.09091 9.75 9.42452 9.41666C9.75814 9.08333 10.2586 9.08333 10.5922 9.41666L13.9283 12.75C14.2619 13.0833 14.2619 13.5833 13.9283 13.9167C13.7615 14.0833 13.5947 14.1667 13.3445 14.1667Z" fill="white"/>
</svg>
