<svg width="20" height="20" viewBox="0 0 20 20" fill="none" xmlns="http://www.w3.org/2000/svg">
<path d="M10.4641 20H1.08122C0.484015 19.9998 3.46606e-08 19.5055 7.71818e-08 18.8958V1.10417C-0.000108248 0.81129 0.113814 0.530376 0.316683 0.323281C0.519552 0.116186 0.794733 -0.000110503 1.08163 7.87898e-08H18.5106C18.7974 5.79264e-08 19.0725 0.116345 19.2753 0.323428C19.4781 0.530512 19.5919 0.811362 19.5918 1.10417V18.8958C19.5918 19.5055 19.1078 19.9998 18.5106 20H13.518V12.255H16.0649L16.4461 9.23667H13.518V7.30958C13.518 6.43542 13.7559 5.84 14.9833 5.84L16.549 5.83917V3.13958C16.2784 3.10292 15.349 3.02083 14.2673 3.02083C12.0102 3.02083 10.4645 4.4275 10.4645 7.01042V9.23667H7.91143V12.255H10.4645V20H10.4641Z" fill="white"/>
</svg>
