<svg width="20" height="20" viewBox="0 0 20 20" fill="none" xmlns="http://www.w3.org/2000/svg">
<path fill-rule="evenodd" clip-rule="evenodd" d="M19.94 5.87778C19.9235 5.04808 19.7665 4.22719 19.4756 3.45C19.2241 2.78269 18.8302 2.17827 18.3211 1.67889C17.8217 1.16984 17.2173 0.775862 16.55 0.524444C15.7732 0.233624 14.9527 0.0765849 14.1233 0.06C13.0556 0.0111111 12.7156 0 10 0C7.28444 0 6.94444 0.0111111 5.87778 0.06C5.04808 0.0764597 4.22719 0.233501 3.45 0.524444C2.78229 0.775719 2.17748 1.1697 1.67778 1.67889C1.16873 2.17827 0.774751 2.78269 0.523333 3.45C0.232513 4.22683 0.0754738 5.04735 0.0588889 5.87667C0.0111111 6.94444 0 7.28444 0 10C0 12.7156 0.0111111 13.0556 0.06 14.1222C0.0764597 14.9519 0.233501 15.7728 0.524444 16.55C0.775862 17.2173 1.16984 17.8217 1.67889 18.3211C2.17824 18.8302 2.78267 19.2242 3.45 19.4756C4.22683 19.7664 5.04735 19.9234 5.87667 19.94C6.94444 19.9889 7.28444 20 10 20C12.7156 20 13.0556 19.9889 14.1222 19.94C14.9519 19.9235 15.7728 19.7665 16.55 19.4756C17.8938 18.9561 18.9561 17.8938 19.4756 16.55C19.7664 15.7732 19.9234 14.9527 19.94 14.1233C19.9889 13.0556 20 12.7156 20 10C20 7.28444 19.9889 6.94444 19.94 5.87778ZM18.14 14.0411C18.1323 14.6748 18.0158 15.3024 17.7956 15.8967C17.4595 16.7692 16.7701 17.4589 15.8978 17.7956C15.3032 18.0159 14.6752 18.1324 14.0411 18.14C12.9856 18.1878 12.67 18.1978 10 18.1978C7.33 18.1978 7.01333 18.1878 5.95889 18.14C5.32521 18.1323 4.69756 18.0158 4.10333 17.7956C3.66854 17.6355 3.27518 17.38 2.95222 17.0478C2.62016 16.7251 2.36463 16.3322 2.20444 15.8978C1.98405 15.3032 1.86754 14.6752 1.86 14.0411C1.81222 12.9856 1.80222 12.67 1.80222 10C1.80222 7.33 1.81222 7.01333 1.86 5.95889C1.86769 5.32521 1.9842 4.69756 2.20444 4.10333C2.36449 3.66854 2.62002 3.27518 2.95222 2.95222C3.27486 2.62016 3.66782 2.36463 4.10222 2.20444C4.6968 1.98407 5.32483 1.86756 5.95889 1.86C7.01444 1.81222 7.33 1.80222 10 1.80222C12.67 1.80222 12.9867 1.81222 14.0411 1.86C14.6748 1.86769 15.3024 1.9842 15.8967 2.20444C16.3315 2.36449 16.7248 2.62002 17.0478 2.95222C17.3798 3.27486 17.6354 3.66782 17.7956 4.10222C18.0159 4.6968 18.1324 5.32483 18.14 5.95889C18.1878 7.01444 18.1978 7.33 18.1978 10C18.1978 12.67 18.1878 12.9867 18.14 14.0411ZM4.8645 10C4.8645 7.16371 7.16374 4.86444 10 4.86444C11.362 4.86444 12.6683 5.40551 13.6313 6.36861C14.5944 7.33172 15.1355 8.63797 15.1355 10C15.1355 12.8363 12.8363 15.1356 10 15.1356C7.16374 15.1356 4.8645 12.8363 4.8645 10ZM10 13.3333C8.15905 13.3333 6.66667 11.8409 6.66667 10C6.66667 8.15905 8.15905 6.66667 10 6.66667C11.8409 6.66667 13.3333 8.15905 13.3333 10C13.3333 11.8409 11.8409 13.3333 10 13.3333ZM15.3378 5.86222C16.0005 5.86222 16.5378 5.32496 16.5378 4.66222C16.5378 3.99948 16.0005 3.46222 15.3378 3.46222C14.675 3.46222 14.1378 3.99948 14.1378 4.66222C14.1378 5.32496 14.675 5.86222 15.3378 5.86222Z" fill="white"/>
</svg>
