<svg width="20" height="20" viewBox="0 0 20 20" fill="none" xmlns="http://www.w3.org/2000/svg">
<path fill-rule="evenodd" clip-rule="evenodd" d="M14.5745 13.2889L19.7339 18.4482C19.9938 18.7082 20.0715 19.0992 19.9308 19.4389C19.7901 19.7786 19.4586 20 19.0909 20C18.8498 20.0002 18.6185 19.9044 18.4482 19.7336L13.2889 14.5743C11.8891 15.6941 10.1136 16.3636 8.18182 16.3636C3.66318 16.3636 0 12.7005 0 8.18182C0 3.66318 3.66318 0 8.18182 0C12.7007 0 16.3636 3.66318 16.3636 8.18182C16.3666 10.0383 15.7354 11.8401 14.5745 13.2889ZM1.81824 8.18182C1.81824 11.6964 4.66731 14.5455 8.18182 14.5455C11.6966 14.5455 14.5454 11.6964 14.5454 8.18182C14.5454 4.66727 11.6966 1.81818 8.18182 1.81818C4.66731 1.81818 1.81824 4.66727 1.81824 8.18182Z" fill="white"/>
</svg>
