<svg width="19" height="20" viewBox="0 0 19 20" fill="none" xmlns="http://www.w3.org/2000/svg">
<path fill-rule="evenodd" clip-rule="evenodd" d="M11.9628 18.7497C12.624 19.1274 13.3726 19.326 14.1343 19.3255C15.2826 19.3278 16.385 18.8749 17.1996 18.0662L18.2253 17.0414C19.0267 16.2387 19.0267 14.9393 18.2253 14.1365L16.06 11.9738C15.4071 11.3241 14.4018 11.1864 13.598 11.6365H13.5973L12.1547 12.449C12.0683 12.4971 11.9604 12.4822 11.8903 12.4124L7.07321 7.59931C7.00369 7.52941 6.98878 7.42203 7.03663 7.33586L7.84972 5.8931C8.30027 5.08992 8.16246 4.0855 7.51219 3.4331L5.34832 1.27103C4.54524 0.469521 3.24415 0.469521 2.44107 1.27103L1.45956 2.25172C0.0519098 3.6553 -0.21743 5.83667 0.806607 7.54L1.29943 8.36C3.87907 12.6496 7.51614 16.207 11.8634 18.6924L11.9628 18.7497ZM3.41706 2.24621C3.54374 2.11969 3.71559 2.04872 3.8947 2.04896C4.07382 2.04865 4.2457 2.11962 4.37234 2.24621L6.53552 4.40758C6.74883 4.62209 6.79417 4.95182 6.64665 5.21586L5.83355 6.65862C5.48292 7.28398 5.59029 8.0659 6.09653 8.57379L10.9136 13.3869C11.4224 13.8924 12.2049 13.9996 12.8311 13.6497L14.2744 12.8372C14.5385 12.6891 14.869 12.7345 15.0833 12.9483L17.2486 15.111C17.5122 15.3747 17.5122 15.8019 17.2486 16.0655L16.2229 17.0903C15.2828 18.0283 13.8133 18.2179 12.6503 17.5538L12.5509 17.4965C8.40805 15.1282 4.94205 11.7382 2.48387 7.65034L1.99104 6.83034C1.29339 5.66973 1.47672 4.18351 2.43555 3.2269L3.41706 2.24621Z" fill="white"/>
</svg>
