<svg width="183" height="14" viewBox="0 0 183 14" fill="none" xmlns="http://www.w3.org/2000/svg">
<path d="M3.545 5.825C3.96 5.825 4.325 5.77 4.64 5.66C4.96 5.55 5.2275 5.3975 5.4425 5.2025C5.6625 5.0025 5.8275 4.765 5.9375 4.49C6.0475 4.215 6.1025 3.9125 6.1025 3.5825C6.1025 2.8975 5.89 2.3625 5.465 1.9775C5.045 1.5925 4.405 1.4 3.545 1.4H1.82V5.825H3.545ZM3.545 0.252499C4.225 0.252499 4.815 0.3325 5.315 0.4925C5.82 0.647499 6.2375 0.869999 6.5675 1.16C6.8975 1.45 7.1425 1.8 7.3025 2.21C7.4675 2.62 7.55 3.0775 7.55 3.5825C7.55 4.0825 7.4625 4.54 7.2875 4.955C7.1125 5.37 6.855 5.7275 6.515 6.0275C6.18 6.3275 5.7625 6.5625 5.2625 6.7325C4.7675 6.8975 4.195 6.98 3.545 6.98H1.82V11H0.3725V0.252499H3.545ZM12.9494 7.58C12.3344 7.6 11.8094 7.65 11.3744 7.73C10.9444 7.805 10.5919 7.905 10.3169 8.03C10.0469 8.155 9.84941 8.3025 9.72441 8.4725C9.60441 8.6425 9.54441 8.8325 9.54441 9.0425C9.54441 9.2425 9.57691 9.415 9.64191 9.56C9.70691 9.705 9.79441 9.825 9.90441 9.92C10.0194 10.01 10.1519 10.0775 10.3019 10.1225C10.4569 10.1625 10.6219 10.1825 10.7969 10.1825C11.0319 10.1825 11.2469 10.16 11.4419 10.115C11.6369 10.065 11.8194 9.995 11.9894 9.905C12.1644 9.815 12.3294 9.7075 12.4844 9.5825C12.6444 9.4575 12.7994 9.315 12.9494 9.155V7.58ZM8.63691 4.475C9.05691 4.07 9.50941 3.7675 9.99441 3.5675C10.4794 3.3675 11.0169 3.2675 11.6069 3.2675C12.0319 3.2675 12.4094 3.3375 12.7394 3.4775C13.0694 3.6175 13.3469 3.8125 13.5719 4.0625C13.7969 4.3125 13.9669 4.615 14.0819 4.97C14.1969 5.325 14.2544 5.715 14.2544 6.14V11H13.6619C13.5319 11 13.4319 10.98 13.3619 10.94C13.2919 10.895 13.2369 10.81 13.1969 10.685L13.0469 9.965C12.8469 10.15 12.6519 10.315 12.4619 10.46C12.2719 10.6 12.0719 10.72 11.8619 10.82C11.6519 10.915 11.4269 10.9875 11.1869 11.0375C10.9519 11.0925 10.6894 11.12 10.3994 11.12C10.1044 11.12 9.82691 11.08 9.56691 11C9.30691 10.915 9.07941 10.79 8.88441 10.625C8.69441 10.46 8.54191 10.2525 8.42691 10.0025C8.31691 9.7475 8.26191 9.4475 8.26191 9.1025C8.26191 8.8025 8.34441 8.515 8.50941 8.24C8.67441 7.96 8.94191 7.7125 9.31191 7.4975C9.68191 7.2825 10.1644 7.1075 10.7594 6.9725C11.3544 6.8325 12.0844 6.7525 12.9494 6.7325V6.14C12.9494 5.55 12.8219 5.105 12.5669 4.805C12.3119 4.5 11.9394 4.3475 11.4494 4.3475C11.1194 4.3475 10.8419 4.39 10.6169 4.475C10.3969 4.555 10.2044 4.6475 10.0394 4.7525C9.87941 4.8525 9.73941 4.945 9.61941 5.03C9.50441 5.11 9.38941 5.15 9.27441 5.15C9.18441 5.15 9.10691 5.1275 9.04191 5.0825C8.97691 5.0325 8.92191 4.9725 8.87691 4.9025L8.63691 4.475ZM19.7155 10.115C20.4655 10.115 21.0305 9.8775 21.4105 9.4025C21.7955 8.9225 21.988 8.2525 21.988 7.3925C21.988 6.5375 21.803 5.87 21.433 5.39C21.068 4.91 20.518 4.67 19.783 4.67C19.428 4.67 19.108 4.7275 18.823 4.8425C18.538 4.9525 18.2955 5.115 18.0955 5.33C17.9005 5.545 17.748 5.81 17.638 6.125C17.533 6.44 17.4805 6.8 17.4805 7.205C17.4805 7.66 17.528 8.0675 17.623 8.4275C17.718 8.7875 17.858 9.0925 18.043 9.3425C18.233 9.5925 18.4655 9.785 18.7405 9.92C19.0205 10.05 19.3455 10.115 19.7155 10.115ZM20.233 1.6175C19.723 1.6625 19.2855 1.775 18.9205 1.955C18.5605 2.135 18.2605 2.38 18.0205 2.69C17.7805 2.995 17.6005 3.3625 17.4805 3.7925C17.3605 4.2225 17.2905 4.7075 17.2705 5.2475C17.3905 5.0075 17.5455 4.7925 17.7355 4.6025C17.9255 4.4075 18.143 4.2425 18.388 4.1075C18.633 3.9675 18.898 3.8625 19.183 3.7925C19.473 3.7175 19.7805 3.68 20.1055 3.68C20.6105 3.68 21.063 3.77 21.463 3.95C21.868 4.125 22.2105 4.375 22.4905 4.7C22.7755 5.025 22.993 5.4175 23.143 5.8775C23.293 6.3325 23.368 6.8375 23.368 7.3925C23.368 7.9575 23.2805 8.47 23.1055 8.93C22.9355 9.385 22.6905 9.775 22.3705 10.1C22.0505 10.42 21.6655 10.6675 21.2155 10.8425C20.7705 11.0175 20.2705 11.105 19.7155 11.105C19.2055 11.105 18.728 11.02 18.283 10.85C17.838 10.68 17.453 10.4 17.128 10.01C16.803 9.62 16.5455 9.1075 16.3555 8.4725C16.1705 7.8325 16.078 7.045 16.078 6.11C16.078 5.31 16.1505 4.575 16.2955 3.905C16.4405 3.235 16.673 2.6525 16.993 2.1575C17.318 1.6625 17.7355 1.265 18.2455 0.965C18.7605 0.66 19.3855 0.475 20.1205 0.41L22.8355 0.177499L22.9105 0.867499C22.9255 1.0225 22.903 1.1525 22.843 1.2575C22.783 1.3625 22.6755 1.42 22.5205 1.43L20.233 1.6175ZM28.2649 3.2825C28.8199 3.2825 29.3199 3.375 29.7649 3.56C30.2099 3.745 30.5899 4.0075 30.9049 4.3475C31.2199 4.6875 31.4599 5.1 31.6249 5.585C31.7949 6.065 31.8799 6.6025 31.8799 7.1975C31.8799 7.7975 31.7949 8.3375 31.6249 8.8175C31.4599 9.2975 31.2199 9.7075 30.9049 10.0475C30.5899 10.3875 30.2099 10.65 29.7649 10.835C29.3199 11.015 28.8199 11.105 28.2649 11.105C27.7049 11.105 27.1999 11.015 26.7499 10.835C26.3049 10.65 25.9249 10.3875 25.6099 10.0475C25.2949 9.7075 25.0524 9.2975 24.8824 8.8175C24.7174 8.3375 24.6349 7.7975 24.6349 7.1975C24.6349 6.6025 24.7174 6.065 24.8824 5.585C25.0524 5.1 25.2949 4.6875 25.6099 4.3475C25.9249 4.0075 26.3049 3.745 26.7499 3.56C27.1999 3.375 27.7049 3.2825 28.2649 3.2825ZM28.2649 10.0625C29.0149 10.0625 29.5749 9.8125 29.9449 9.3125C30.3149 8.8075 30.4999 8.105 30.4999 7.205C30.4999 6.3 30.3149 5.595 29.9449 5.09C29.5749 4.585 29.0149 4.3325 28.2649 4.3325C27.8849 4.3325 27.5524 4.3975 27.2674 4.5275C26.9874 4.6575 26.7524 4.845 26.5624 5.09C26.3774 5.335 26.2374 5.6375 26.1424 5.9975C26.0524 6.3525 26.0074 6.755 26.0074 7.205C26.0074 8.105 26.1924 8.8075 26.5624 9.3125C26.9374 9.8125 27.5049 10.0625 28.2649 10.0625ZM39.5805 4.4225H36.663V11H35.328V4.4225H32.4105V3.4025H39.5805V4.4225ZM44.8977 7.58C44.2827 7.6 43.7577 7.65 43.3227 7.73C42.8927 7.805 42.5402 7.905 42.2652 8.03C41.9952 8.155 41.7977 8.3025 41.6727 8.4725C41.5527 8.6425 41.4927 8.8325 41.4927 9.0425C41.4927 9.2425 41.5252 9.415 41.5902 9.56C41.6552 9.705 41.7427 9.825 41.8527 9.92C41.9677 10.01 42.1002 10.0775 42.2502 10.1225C42.4052 10.1625 42.5702 10.1825 42.7452 10.1825C42.9802 10.1825 43.1952 10.16 43.3902 10.115C43.5852 10.065 43.7677 9.995 43.9377 9.905C44.1127 9.815 44.2777 9.7075 44.4327 9.5825C44.5927 9.4575 44.7477 9.315 44.8977 9.155V7.58ZM40.5852 4.475C41.0052 4.07 41.4577 3.7675 41.9427 3.5675C42.4277 3.3675 42.9652 3.2675 43.5552 3.2675C43.9802 3.2675 44.3577 3.3375 44.6877 3.4775C45.0177 3.6175 45.2952 3.8125 45.5202 4.0625C45.7452 4.3125 45.9152 4.615 46.0302 4.97C46.1452 5.325 46.2027 5.715 46.2027 6.14V11H45.6102C45.4802 11 45.3802 10.98 45.3102 10.94C45.2402 10.895 45.1852 10.81 45.1452 10.685L44.9952 9.965C44.7952 10.15 44.6002 10.315 44.4102 10.46C44.2202 10.6 44.0202 10.72 43.8102 10.82C43.6002 10.915 43.3752 10.9875 43.1352 11.0375C42.9002 11.0925 42.6377 11.12 42.3477 11.12C42.0527 11.12 41.7752 11.08 41.5152 11C41.2552 10.915 41.0277 10.79 40.8327 10.625C40.6427 10.46 40.4902 10.2525 40.3752 10.0025C40.2652 9.7475 40.2102 9.4475 40.2102 9.1025C40.2102 8.8025 40.2927 8.515 40.4577 8.24C40.6227 7.96 40.8902 7.7125 41.2602 7.4975C41.6302 7.2825 42.1127 7.1075 42.7077 6.9725C43.3027 6.8325 44.0327 6.7525 44.8977 6.7325V6.14C44.8977 5.55 44.7702 5.105 44.5152 4.805C44.2602 4.5 43.8877 4.3475 43.3977 4.3475C43.0677 4.3475 42.7902 4.39 42.5652 4.475C42.3452 4.555 42.1527 4.6475 41.9877 4.7525C41.8277 4.8525 41.6877 4.945 41.5677 5.03C41.4527 5.11 41.3377 5.15 41.2227 5.15C41.1327 5.15 41.0552 5.1275 40.9902 5.0825C40.9252 5.0325 40.8702 4.9725 40.8252 4.9025L40.5852 4.475ZM53.3212 6.3725C53.3212 6.0625 53.2762 5.78 53.1862 5.525C53.1012 5.265 52.9737 5.0425 52.8037 4.8575C52.6387 4.6675 52.4362 4.5225 52.1962 4.4225C51.9562 4.3175 51.6837 4.265 51.3787 4.265C50.7387 4.265 50.2312 4.4525 49.8562 4.8275C49.4862 5.1975 49.2562 5.7125 49.1662 6.3725H53.3212ZM54.4012 9.935C54.2362 10.135 54.0387 10.31 53.8087 10.46C53.5787 10.605 53.3312 10.725 53.0662 10.82C52.8062 10.915 52.5362 10.985 52.2562 11.03C51.9762 11.08 51.6987 11.105 51.4237 11.105C50.8987 11.105 50.4137 11.0175 49.9687 10.8425C49.5287 10.6625 49.1462 10.4025 48.8212 10.0625C48.5012 9.7175 48.2512 9.2925 48.0712 8.7875C47.8912 8.2825 47.8012 7.7025 47.8012 7.0475C47.8012 6.5175 47.8812 6.0225 48.0412 5.5625C48.2062 5.1025 48.4412 4.705 48.7462 4.37C49.0512 4.03 49.4237 3.765 49.8637 3.575C50.3037 3.38 50.7987 3.2825 51.3487 3.2825C51.8037 3.2825 52.2237 3.36 52.6087 3.515C52.9987 3.665 53.3337 3.885 53.6137 4.175C53.8987 4.46 54.1212 4.815 54.2812 5.24C54.4412 5.66 54.5212 6.14 54.5212 6.68C54.5212 6.89 54.4987 7.03 54.4537 7.1C54.4087 7.17 54.3237 7.205 54.1987 7.205H49.1212C49.1362 7.685 49.2012 8.1025 49.3162 8.4575C49.4362 8.8125 49.6012 9.11 49.8112 9.35C50.0212 9.585 50.2712 9.7625 50.5612 9.8825C50.8512 9.9975 51.1762 10.055 51.5362 10.055C51.8712 10.055 52.1587 10.0175 52.3987 9.9425C52.6437 9.8625 52.8537 9.7775 53.0287 9.6875C53.2037 9.5975 53.3487 9.515 53.4637 9.44C53.5837 9.36 53.6862 9.32 53.7712 9.32C53.8812 9.32 53.9662 9.3625 54.0262 9.4475L54.4012 9.935ZM64.6285 3.38V11H63.421V5.9525C63.421 5.8125 63.4285 5.6575 63.4435 5.4875C63.4635 5.3125 63.4885 5.15 63.5185 5L60.8785 9.6275C60.8385 9.7025 60.786 9.7625 60.721 9.8075C60.656 9.8525 60.581 9.875 60.496 9.875H60.346C60.261 9.875 60.1835 9.8525 60.1135 9.8075C60.0485 9.7625 59.996 9.7025 59.956 9.6275L57.271 4.985C57.296 5.135 57.3185 5.3 57.3385 5.48C57.3585 5.655 57.3685 5.8125 57.3685 5.9525V11H56.161V3.38H57.2335C57.3285 3.38 57.421 3.4025 57.511 3.4475C57.601 3.4875 57.6785 3.565 57.7435 3.68L60.1135 7.64C60.2285 7.87 60.331 8.1125 60.421 8.3675C60.506 8.1025 60.606 7.86 60.721 7.64L63.046 3.68C63.111 3.56 63.1885 3.48 63.2785 3.44C63.3685 3.4 63.461 3.38 63.556 3.38H64.6285ZM75.8626 4.7525C75.8226 4.8075 75.7826 4.85 75.7426 4.88C75.7026 4.91 75.6476 4.925 75.5776 4.925C75.5026 4.925 75.4201 4.895 75.3301 4.835C75.2401 4.77 75.1276 4.7 74.9926 4.625C74.8626 4.55 74.7001 4.4825 74.5051 4.4225C74.3151 4.3575 74.0801 4.325 73.8001 4.325C73.4251 4.325 73.0951 4.3925 72.8101 4.5275C72.5251 4.6575 72.2851 4.8475 72.0901 5.0975C71.9001 5.3475 71.7551 5.65 71.6551 6.005C71.5601 6.36 71.5126 6.7575 71.5126 7.1975C71.5126 7.6575 71.5651 8.0675 71.6701 8.4275C71.7751 8.7825 71.9226 9.0825 72.1126 9.3275C72.3076 9.5675 72.5401 9.7525 72.8101 9.8825C73.0851 10.0075 73.3926 10.07 73.7326 10.07C74.0576 10.07 74.3251 10.0325 74.5351 9.9575C74.7451 9.8775 74.9176 9.79 75.0526 9.695C75.1926 9.6 75.3076 9.515 75.3976 9.44C75.4926 9.36 75.5851 9.32 75.6751 9.32C75.7851 9.32 75.8701 9.3625 75.9301 9.4475L76.3051 9.935C76.1401 10.14 75.9526 10.315 75.7426 10.46C75.5326 10.605 75.3051 10.7275 75.0601 10.8275C74.8201 10.9225 74.5676 10.9925 74.3026 11.0375C74.0376 11.0825 73.7676 11.105 73.4926 11.105C73.0176 11.105 72.5751 11.0175 72.1651 10.8425C71.7601 10.6675 71.4076 10.415 71.1076 10.085C70.8076 9.75 70.5726 9.34 70.4026 8.855C70.2326 8.37 70.1476 7.8175 70.1476 7.1975C70.1476 6.6325 70.2251 6.11 70.3801 5.63C70.5401 5.15 70.7701 4.7375 71.0701 4.3925C71.3751 4.0425 71.7476 3.77 72.1876 3.575C72.6326 3.38 73.1426 3.2825 73.7176 3.2825C74.2526 3.2825 74.7226 3.37 75.1276 3.545C75.5376 3.715 75.9001 3.9575 76.2151 4.2725L75.8626 4.7525ZM88.1536 9.98V11H82.3936V9.98H84.6961V2.6525C84.6961 2.4325 84.7036 2.21 84.7186 1.985L82.8061 3.6275C82.7411 3.6825 82.6761 3.7175 82.6111 3.7325C82.5461 3.7425 82.4861 3.7425 82.4311 3.7325C82.3761 3.7225 82.3236 3.7025 82.2736 3.6725C82.2286 3.6425 82.1936 3.61 82.1686 3.575L81.7486 2.9975L84.9511 0.229999H86.0386V9.98H88.1536ZM97.4697 5.63C97.4697 6.57 97.3672 7.385 97.1622 8.075C96.9622 8.76 96.6872 9.3275 96.3372 9.7775C95.9872 10.2275 95.5722 10.5625 95.0922 10.7825C94.6172 11.0025 94.1072 11.1125 93.5622 11.1125C93.0122 11.1125 92.4997 11.0025 92.0247 10.7825C91.5547 10.5625 91.1447 10.2275 90.7947 9.7775C90.4447 9.3275 90.1697 8.76 89.9697 8.075C89.7697 7.385 89.6697 6.57 89.6697 5.63C89.6697 4.69 89.7697 3.875 89.9697 3.185C90.1697 2.495 90.4447 1.925 90.7947 1.475C91.1447 1.02 91.5547 0.682499 92.0247 0.462499C92.4997 0.242499 93.0122 0.132499 93.5622 0.132499C94.1072 0.132499 94.6172 0.242499 95.0922 0.462499C95.5722 0.682499 95.9872 1.02 96.3372 1.475C96.6872 1.925 96.9622 2.495 97.1622 3.185C97.3672 3.875 97.4697 4.69 97.4697 5.63ZM96.0822 5.63C96.0822 4.81 96.0122 4.1225 95.8722 3.5675C95.7372 3.0075 95.5522 2.5575 95.3172 2.2175C95.0872 1.8775 94.8197 1.635 94.5147 1.49C94.2097 1.34 93.8922 1.265 93.5622 1.265C93.2322 1.265 92.9147 1.34 92.6097 1.49C92.3047 1.635 92.0372 1.8775 91.8072 2.2175C91.5772 2.5575 91.3922 3.0075 91.2522 3.5675C91.1172 4.1225 91.0497 4.81 91.0497 5.63C91.0497 6.45 91.1172 7.1375 91.2522 7.6925C91.3922 8.2475 91.5772 8.695 91.8072 9.035C92.0372 9.375 92.3047 9.62 92.6097 9.77C92.9147 9.915 93.2322 9.9875 93.5622 9.9875C93.8922 9.9875 94.2097 9.915 94.5147 9.77C94.8197 9.62 95.0872 9.375 95.3172 9.035C95.5522 8.695 95.7372 8.2475 95.8722 7.6925C96.0122 7.1375 96.0822 6.45 96.0822 5.63ZM98.8584 10.175C98.8584 10.045 98.8809 9.9225 98.9259 9.8075C98.9759 9.6925 99.0409 9.5925 99.1209 9.5075C99.2059 9.4225 99.3059 9.355 99.4209 9.305C99.5359 9.255 99.6584 9.23 99.7884 9.23C99.9184 9.23 100.041 9.255 100.156 9.305C100.271 9.355 100.371 9.4225 100.456 9.5075C100.541 9.5925 100.608 9.6925 100.658 9.8075C100.708 9.9225 100.733 10.045 100.733 10.175C100.733 10.31 100.708 10.435 100.658 10.55C100.608 10.66 100.541 10.7575 100.456 10.8425C100.371 10.9275 100.271 10.9925 100.156 11.0375C100.041 11.0875 99.9184 11.1125 99.7884 11.1125C99.6584 11.1125 99.5359 11.0875 99.4209 11.0375C99.3059 10.9925 99.2059 10.9275 99.1209 10.8425C99.0409 10.7575 98.9759 10.66 98.9259 10.55C98.8809 10.435 98.8584 10.31 98.8584 10.175ZM98.8584 4.55C98.8584 4.42 98.8809 4.2975 98.9259 4.1825C98.9759 4.0675 99.0409 3.9675 99.1209 3.8825C99.2059 3.7975 99.3059 3.73 99.4209 3.68C99.5359 3.63 99.6584 3.605 99.7884 3.605C99.9184 3.605 100.041 3.63 100.156 3.68C100.271 3.73 100.371 3.7975 100.456 3.8825C100.541 3.9675 100.608 4.0675 100.658 4.1825C100.708 4.2975 100.733 4.42 100.733 4.55C100.733 4.685 100.708 4.81 100.658 4.925C100.608 5.035 100.541 5.1325 100.456 5.2175C100.371 5.3025 100.271 5.37 100.156 5.42C100.041 5.465 99.9184 5.4875 99.7884 5.4875C99.6584 5.4875 99.5359 5.465 99.4209 5.42C99.3059 5.37 99.2059 5.3025 99.1209 5.2175C99.0409 5.1325 98.9759 5.035 98.9259 4.925C98.8809 4.81 98.8584 4.685 98.8584 4.55ZM109.921 5.63C109.921 6.57 109.818 7.385 109.613 8.075C109.413 8.76 109.138 9.3275 108.788 9.7775C108.438 10.2275 108.023 10.5625 107.543 10.7825C107.068 11.0025 106.558 11.1125 106.013 11.1125C105.463 11.1125 104.951 11.0025 104.476 10.7825C104.006 10.5625 103.596 10.2275 103.246 9.7775C102.896 9.3275 102.621 8.76 102.421 8.075C102.221 7.385 102.121 6.57 102.121 5.63C102.121 4.69 102.221 3.875 102.421 3.185C102.621 2.495 102.896 1.925 103.246 1.475C103.596 1.02 104.006 0.682499 104.476 0.462499C104.951 0.242499 105.463 0.132499 106.013 0.132499C106.558 0.132499 107.068 0.242499 107.543 0.462499C108.023 0.682499 108.438 1.02 108.788 1.475C109.138 1.925 109.413 2.495 109.613 3.185C109.818 3.875 109.921 4.69 109.921 5.63ZM108.533 5.63C108.533 4.81 108.463 4.1225 108.323 3.5675C108.188 3.0075 108.003 2.5575 107.768 2.2175C107.538 1.8775 107.271 1.635 106.966 1.49C106.661 1.34 106.343 1.265 106.013 1.265C105.683 1.265 105.366 1.34 105.061 1.49C104.756 1.635 104.488 1.8775 104.258 2.2175C104.028 2.5575 103.843 3.0075 103.703 3.5675C103.568 4.1225 103.501 4.81 103.501 5.63C103.501 6.45 103.568 7.1375 103.703 7.6925C103.843 8.2475 104.028 8.695 104.258 9.035C104.488 9.375 104.756 9.62 105.061 9.77C105.366 9.915 105.683 9.9875 106.013 9.9875C106.343 9.9875 106.661 9.915 106.966 9.77C107.271 9.62 107.538 9.375 107.768 9.035C108.003 8.695 108.188 8.2475 108.323 7.6925C108.463 7.1375 108.533 6.45 108.533 5.63ZM118.622 5.63C118.622 6.57 118.52 7.385 118.315 8.075C118.115 8.76 117.84 9.3275 117.49 9.7775C117.14 10.2275 116.725 10.5625 116.245 10.7825C115.77 11.0025 115.26 11.1125 114.715 11.1125C114.165 11.1125 113.652 11.0025 113.177 10.7825C112.707 10.5625 112.297 10.2275 111.947 9.7775C111.597 9.3275 111.322 8.76 111.122 8.075C110.922 7.385 110.822 6.57 110.822 5.63C110.822 4.69 110.922 3.875 111.122 3.185C111.322 2.495 111.597 1.925 111.947 1.475C112.297 1.02 112.707 0.682499 113.177 0.462499C113.652 0.242499 114.165 0.132499 114.715 0.132499C115.26 0.132499 115.77 0.242499 116.245 0.462499C116.725 0.682499 117.14 1.02 117.49 1.475C117.84 1.925 118.115 2.495 118.315 3.185C118.52 3.875 118.622 4.69 118.622 5.63ZM117.235 5.63C117.235 4.81 117.165 4.1225 117.025 3.5675C116.89 3.0075 116.705 2.5575 116.47 2.2175C116.24 1.8775 115.972 1.635 115.667 1.49C115.362 1.34 115.045 1.265 114.715 1.265C114.385 1.265 114.067 1.34 113.762 1.49C113.457 1.635 113.19 1.8775 112.96 2.2175C112.73 2.5575 112.545 3.0075 112.405 3.5675C112.27 4.1225 112.202 4.81 112.202 5.63C112.202 6.45 112.27 7.1375 112.405 7.6925C112.545 8.2475 112.73 8.695 112.96 9.035C113.19 9.375 113.457 9.62 113.762 9.77C114.067 9.915 114.385 9.9875 114.715 9.9875C115.045 9.9875 115.362 9.915 115.667 9.77C115.972 9.62 116.24 9.375 116.47 9.035C116.705 8.695 116.89 8.2475 117.025 7.6925C117.165 7.1375 117.235 6.45 117.235 5.63ZM129.204 10.025V4.4525H126.796C126.746 5.2325 126.676 5.9225 126.586 6.5225C126.496 7.1225 126.391 7.65 126.271 8.105C126.156 8.555 126.026 8.9375 125.881 9.2525C125.741 9.5675 125.594 9.825 125.439 10.025H129.204ZM131.889 9.9875V13.205C131.889 13.335 131.851 13.435 131.776 13.505C131.706 13.58 131.614 13.6175 131.499 13.6175H130.681V11H124.291V13.235C124.291 13.33 124.261 13.4175 124.201 13.4975C124.146 13.5775 124.054 13.6175 123.924 13.6175H123.084V10.025H123.331C123.506 10.025 123.679 9.995 123.849 9.935C124.024 9.875 124.191 9.7625 124.351 9.5975C124.511 9.4275 124.661 9.19 124.801 8.885C124.946 8.58 125.076 8.1825 125.191 7.6925C125.306 7.2025 125.406 6.6075 125.491 5.9075C125.576 5.2025 125.644 4.3675 125.694 3.4025H130.501V9.9875H131.889ZM136.312 3.2825C136.867 3.2825 137.367 3.375 137.812 3.56C138.257 3.745 138.637 4.0075 138.952 4.3475C139.267 4.6875 139.507 5.1 139.672 5.585C139.842 6.065 139.927 6.6025 139.927 7.1975C139.927 7.7975 139.842 8.3375 139.672 8.8175C139.507 9.2975 139.267 9.7075 138.952 10.0475C138.637 10.3875 138.257 10.65 137.812 10.835C137.367 11.015 136.867 11.105 136.312 11.105C135.752 11.105 135.247 11.015 134.797 10.835C134.352 10.65 133.972 10.3875 133.657 10.0475C133.342 9.7075 133.099 9.2975 132.929 8.8175C132.764 8.3375 132.682 7.7975 132.682 7.1975C132.682 6.6025 132.764 6.065 132.929 5.585C133.099 5.1 133.342 4.6875 133.657 4.3475C133.972 4.0075 134.352 3.745 134.797 3.56C135.247 3.375 135.752 3.2825 136.312 3.2825ZM136.312 10.0625C137.062 10.0625 137.622 9.8125 137.992 9.3125C138.362 8.8075 138.547 8.105 138.547 7.205C138.547 6.3 138.362 5.595 137.992 5.09C137.622 4.585 137.062 4.3325 136.312 4.3325C135.932 4.3325 135.599 4.3975 135.314 4.5275C135.034 4.6575 134.799 4.845 134.609 5.09C134.424 5.335 134.284 5.6375 134.189 5.9975C134.099 6.3525 134.054 6.755 134.054 7.205C134.054 8.105 134.239 8.8075 134.609 9.3125C134.984 9.8125 135.552 10.0625 136.312 10.0625ZM151.803 9.7325C151.948 9.7325 152.063 9.775 152.148 9.86C152.233 9.945 152.275 10.055 152.275 10.19V11H145.105V10.5425C145.105 10.4475 145.125 10.35 145.165 10.25C145.205 10.15 145.268 10.0575 145.353 9.9725L148.795 6.515C149.08 6.225 149.34 5.9475 149.575 5.6825C149.81 5.4125 150.01 5.1425 150.175 4.8725C150.34 4.6025 150.468 4.33 150.558 4.055C150.648 3.775 150.693 3.4775 150.693 3.1625C150.693 2.8475 150.643 2.5725 150.543 2.3375C150.443 2.0975 150.305 1.9 150.13 1.745C149.96 1.59 149.758 1.475 149.523 1.4C149.288 1.32 149.035 1.28 148.765 1.28C148.49 1.28 148.238 1.32 148.008 1.4C147.778 1.48 147.573 1.5925 147.393 1.7375C147.218 1.8775 147.07 2.045 146.95 2.24C146.83 2.435 146.745 2.65 146.695 2.885C146.635 3.06 146.553 3.1775 146.448 3.2375C146.348 3.2925 146.205 3.3075 146.02 3.2825L145.323 3.1625C145.393 2.6725 145.528 2.24 145.728 1.865C145.933 1.485 146.188 1.1675 146.493 0.9125C146.803 0.6575 147.155 0.465 147.55 0.335C147.945 0.199999 148.373 0.132499 148.833 0.132499C149.288 0.132499 149.713 0.199999 150.108 0.335C150.503 0.469999 150.845 0.667499 151.135 0.9275C151.425 1.1825 151.653 1.495 151.818 1.865C151.983 2.235 152.065 2.655 152.065 3.125C152.065 3.525 152.005 3.8975 151.885 4.2425C151.765 4.5825 151.603 4.9075 151.398 5.2175C151.193 5.5275 150.955 5.83 150.685 6.125C150.42 6.42 150.138 6.7175 149.838 7.0175L147.003 9.9125C147.203 9.8575 147.405 9.815 147.61 9.785C147.815 9.75 148.013 9.7325 148.203 9.7325H151.803ZM160.504 9.7325C160.649 9.7325 160.764 9.775 160.849 9.86C160.934 9.945 160.977 10.055 160.977 10.19V11H153.807V10.5425C153.807 10.4475 153.827 10.35 153.867 10.25C153.907 10.15 153.969 10.0575 154.054 9.9725L157.497 6.515C157.782 6.225 158.042 5.9475 158.277 5.6825C158.512 5.4125 158.712 5.1425 158.877 4.8725C159.042 4.6025 159.169 4.33 159.259 4.055C159.349 3.775 159.394 3.4775 159.394 3.1625C159.394 2.8475 159.344 2.5725 159.244 2.3375C159.144 2.0975 159.007 1.9 158.832 1.745C158.662 1.59 158.459 1.475 158.224 1.4C157.989 1.32 157.737 1.28 157.467 1.28C157.192 1.28 156.939 1.32 156.709 1.4C156.479 1.48 156.274 1.5925 156.094 1.7375C155.919 1.8775 155.772 2.045 155.652 2.24C155.532 2.435 155.447 2.65 155.397 2.885C155.337 3.06 155.254 3.1775 155.149 3.2375C155.049 3.2925 154.907 3.3075 154.722 3.2825L154.024 3.1625C154.094 2.6725 154.229 2.24 154.429 1.865C154.634 1.485 154.889 1.1675 155.194 0.9125C155.504 0.6575 155.857 0.465 156.252 0.335C156.647 0.199999 157.074 0.132499 157.534 0.132499C157.989 0.132499 158.414 0.199999 158.809 0.335C159.204 0.469999 159.547 0.667499 159.837 0.9275C160.127 1.1825 160.354 1.495 160.519 1.865C160.684 2.235 160.767 2.655 160.767 3.125C160.767 3.525 160.707 3.8975 160.587 4.2425C160.467 4.5825 160.304 4.9075 160.099 5.2175C159.894 5.5275 159.657 5.83 159.387 6.125C159.122 6.42 158.839 6.7175 158.539 7.0175L155.704 9.9125C155.904 9.8575 156.107 9.815 156.312 9.785C156.517 9.75 156.714 9.7325 156.904 9.7325H160.504ZM162.74 10.175C162.74 10.045 162.763 9.9225 162.808 9.8075C162.858 9.6925 162.923 9.5925 163.003 9.5075C163.088 9.4225 163.188 9.355 163.303 9.305C163.418 9.255 163.54 9.23 163.67 9.23C163.8 9.23 163.923 9.255 164.038 9.305C164.153 9.355 164.253 9.4225 164.338 9.5075C164.423 9.5925 164.49 9.6925 164.54 9.8075C164.59 9.9225 164.615 10.045 164.615 10.175C164.615 10.31 164.59 10.435 164.54 10.55C164.49 10.66 164.423 10.7575 164.338 10.8425C164.253 10.9275 164.153 10.9925 164.038 11.0375C163.923 11.0875 163.8 11.1125 163.67 11.1125C163.54 11.1125 163.418 11.0875 163.303 11.0375C163.188 10.9925 163.088 10.9275 163.003 10.8425C162.923 10.7575 162.858 10.66 162.808 10.55C162.763 10.435 162.74 10.31 162.74 10.175ZM162.74 4.55C162.74 4.42 162.763 4.2975 162.808 4.1825C162.858 4.0675 162.923 3.9675 163.003 3.8825C163.088 3.7975 163.188 3.73 163.303 3.68C163.418 3.63 163.54 3.605 163.67 3.605C163.8 3.605 163.923 3.63 164.038 3.68C164.153 3.73 164.253 3.7975 164.338 3.8825C164.423 3.9675 164.49 4.0675 164.54 4.1825C164.59 4.2975 164.615 4.42 164.615 4.55C164.615 4.685 164.59 4.81 164.54 4.925C164.49 5.035 164.423 5.1325 164.338 5.2175C164.253 5.3025 164.153 5.37 164.038 5.42C163.923 5.465 163.8 5.4875 163.67 5.4875C163.54 5.4875 163.418 5.465 163.303 5.42C163.188 5.37 163.088 5.3025 163.003 5.2175C162.923 5.1325 162.858 5.035 162.808 4.925C162.763 4.81 162.74 4.685 162.74 4.55ZM173.803 5.63C173.803 6.57 173.7 7.385 173.495 8.075C173.295 8.76 173.02 9.3275 172.67 9.7775C172.32 10.2275 171.905 10.5625 171.425 10.7825C170.95 11.0025 170.44 11.1125 169.895 11.1125C169.345 11.1125 168.833 11.0025 168.358 10.7825C167.888 10.5625 167.478 10.2275 167.128 9.7775C166.778 9.3275 166.503 8.76 166.303 8.075C166.103 7.385 166.003 6.57 166.003 5.63C166.003 4.69 166.103 3.875 166.303 3.185C166.503 2.495 166.778 1.925 167.128 1.475C167.478 1.02 167.888 0.682499 168.358 0.462499C168.833 0.242499 169.345 0.132499 169.895 0.132499C170.44 0.132499 170.95 0.242499 171.425 0.462499C171.905 0.682499 172.32 1.02 172.67 1.475C173.02 1.925 173.295 2.495 173.495 3.185C173.7 3.875 173.803 4.69 173.803 5.63ZM172.415 5.63C172.415 4.81 172.345 4.1225 172.205 3.5675C172.07 3.0075 171.885 2.5575 171.65 2.2175C171.42 1.8775 171.153 1.635 170.848 1.49C170.543 1.34 170.225 1.265 169.895 1.265C169.565 1.265 169.248 1.34 168.943 1.49C168.638 1.635 168.37 1.8775 168.14 2.2175C167.91 2.5575 167.725 3.0075 167.585 3.5675C167.45 4.1225 167.383 4.81 167.383 5.63C167.383 6.45 167.45 7.1375 167.585 7.6925C167.725 8.2475 167.91 8.695 168.14 9.035C168.37 9.375 168.638 9.62 168.943 9.77C169.248 9.915 169.565 9.9875 169.895 9.9875C170.225 9.9875 170.543 9.915 170.848 9.77C171.153 9.62 171.42 9.375 171.65 9.035C171.885 8.695 172.07 8.2475 172.205 7.6925C172.345 7.1375 172.415 6.45 172.415 5.63ZM182.504 5.63C182.504 6.57 182.401 7.385 182.196 8.075C181.996 8.76 181.721 9.3275 181.371 9.7775C181.021 10.2275 180.606 10.5625 180.126 10.7825C179.651 11.0025 179.141 11.1125 178.596 11.1125C178.046 11.1125 177.534 11.0025 177.059 10.7825C176.589 10.5625 176.179 10.2275 175.829 9.7775C175.479 9.3275 175.204 8.76 175.004 8.075C174.804 7.385 174.704 6.57 174.704 5.63C174.704 4.69 174.804 3.875 175.004 3.185C175.204 2.495 175.479 1.925 175.829 1.475C176.179 1.02 176.589 0.682499 177.059 0.462499C177.534 0.242499 178.046 0.132499 178.596 0.132499C179.141 0.132499 179.651 0.242499 180.126 0.462499C180.606 0.682499 181.021 1.02 181.371 1.475C181.721 1.925 181.996 2.495 182.196 3.185C182.401 3.875 182.504 4.69 182.504 5.63ZM181.116 5.63C181.116 4.81 181.046 4.1225 180.906 3.5675C180.771 3.0075 180.586 2.5575 180.351 2.2175C180.121 1.8775 179.854 1.635 179.549 1.49C179.244 1.34 178.926 1.265 178.596 1.265C178.266 1.265 177.949 1.34 177.644 1.49C177.339 1.635 177.071 1.8775 176.841 2.2175C176.611 2.5575 176.426 3.0075 176.286 3.5675C176.151 4.1225 176.084 4.81 176.084 5.63C176.084 6.45 176.151 7.1375 176.286 7.6925C176.426 8.2475 176.611 8.695 176.841 9.035C177.071 9.375 177.339 9.62 177.644 9.77C177.949 9.915 178.266 9.9875 178.596 9.9875C178.926 9.9875 179.244 9.915 179.549 9.77C179.854 9.62 180.121 9.375 180.351 9.035C180.586 8.695 180.771 8.2475 180.906 7.6925C181.046 7.1375 181.116 6.45 181.116 5.63Z" fill="white"/>
</svg>
